# xmcd
#
# Track frame offsets:
#	150
#	16737
#	30964
#	43785
#	59585
#	78410
#	97896
#	114194
#	130706
#	145065
#	162516
#	176013
#	191525
#	211181
#	227497
#	244695
#	262567
#	279146
#	297554
#	315315
#
# Disc length: 4409 seconds
#
# Revision: 4252343845
# Processed by: cddbd v1.5.2PL0 Copyright (c) Steve Scherf et al.
# Submitted via: EZCDAudioConverter 8.5.0.1
#
DISCID=fb113714
DTITLE=Kenny Rogers - The Best Of Kenny Rogers: Through The Years
DYEAR=2018
DGENRE=Country
TTITLE0=Kenny Rogers - Lucille
TTITLE1=Kenny Rogers - Daytime Friends
TTITLE2=Kenny Rogers - Love Or Something Like It
TTITLE3=Kenny Rogers - The Gambler
TTITLE4=Kenny Rogers - She Believes In Me
TTITLE5=Kenny Rogers - Coward Of The County
TTITLE6=Kenny Rogers - You Decorated My Life
TTITLE7=Kenny Rogers and Kim Carnes - Don't Fall In Love With A Dreamer
TTITLE8=Kenny Rogers - Love The World Away
TTITLE9=Kenny Rogers - Lady
TTITLE10=Kenny Rogers and Dottie West - What Are We Doin' In Love
TTITLE11=Kenny Rogers - I Don't Need You
TTITLE12=Kenny Rogers - Through The Years
TTITLE13=Kenny Rogers - Love Will Turn You Around
TTITLE14=Kenny Rogers and Sheena Easton - We've Got Tonight
TTITLE15=Kenny Rogers - This Woman
TTITLE16=Kenny Rogers - Crazy
TTITLE17=Kenny Rogers - Morning Desire
TTITLE18=Kenny Rogers and Ronnie Milsap - Make No Mistake, She's Mine
TTITLE19=Kenny Rogers - I Can't Unlove You
EXTD=
EXTT0=
EXTT1=
EXTT2=
EXTT3=
EXTT4=
EXTT5=
EXTT6=
EXTT7=
EXTT8=
EXTT9=
EXTT10=
EXTT11=
EXTT12=
EXTT13=
EXTT14=
EXTT15=
EXTT16=
EXTT17=
EXTT18=
EXTT19=
PLAYORDER=
